{"title":"DHOOM 3 1cd HDCAM","uid":9372396,"size":746277666,"categoryP":"video","categoryS":"movies","magnet":"?xt=urn:btih:9adf8ee5827dcdfc4ab4ac2b22bd194ff7012ffe&amp;dn=DHOOM+3+1cd+HDCAM&amp;tr=udp%3A%2F%2Ftracker.openbittorrent.com%3A80&amp;tr=udp%3A%2F%2Fopen.demonii.com%3A1337&amp;tr=udp%3A%2F%2Ftracker.coppersurfer.tk%3A6969&amp;tr=udp%3A%2F%2Fexodus.desync.com%3A6969","seeders":0,"leechers":0,"uploader":"HGZ123","files":1,"time":1387556501,"description":"[center][color=red][size=500]MAXIMUM SEEDING SPEED[/size]\n[/color]\n[img]http://technocoming.com/wp-content/uploads/2013/12/dhoom-3.jpg[/img]\n\n[img]http://sharespark.net/Smileys/default/info.png[/img]\n\nDhoom 3 is an upcoming Hindi action thriller film, written and directed by Vijay Krishna Acharya and produced by Aditya Chopra. It will be the third installment of the Dhoom series. Wikipedia\nInitial release: December 20, 2013 (India, Pakistan, USA)\nDirector: Vijay Krishna Acharya\nMusic composed by: Pritam Chakraborty\nProducer: Aditya Chopra\nCinematography: Sudeep Chatterjee\n\nDuration: 02:40:17.86, start: 0.000000, bitrate: 620 kb/s\nStream #0:0: Video: h264 (High) (H264 / 0x34363248), yuv420p, 352x288 [SAR 12:11 DAR 4:3], 25 fps, 25 tbr, 25 tbn, 50 tbc\nStream #0:1: Audio: mp3 (U[0][0][0] / 0x0055), 44100 Hz, stereo, s16, 64 kb/s\n\n[img]http://sharespark.net/Smileys/default/ss.png[/img]\n\n[img]http://t1.someimage.com/onbVnGm.jpg[/img] [img]http://t1.someimage.com/PVGUdDe.jpg[/img]\n[URL=http://someimage.com/NqkMlUu][IMG]http://t1.someimage.com/NqkMlUu.jpg[/IMG][/URL] [URL=http://someimage.com/lYgicHY][IMG]http://t1.someimage.com/lYgicHY.jpg[/IMG][/URL] [URL=http://someimage.com/wWE5g6n][IMG]http://t1.someimage.com/wWE5g6n.jpg[/IMG][/URL] [URL=http://someimage.com/KVU7Ft2][IMG]http://t1.someimage.com/KVU7Ft2.jpg[/IMG][/URL] [URL=http://someimage.com/Dn7gEiT][IMG]http://t1.someimage.com/Dn7gEiT.jpg\n\nGuys just dont beg for seeds.U will get them soon.Torrent is just added..And just becoz the print is not euqal to DVD or Blu ray dont rate it bad.Say Thx for quick upload If u really want a good print go to theatres.\n\n\n[img]http://www.telugucinemasite.com/wp-content/uploads/2013/12/Dhoom-3-Movie-show-times-in.jpg[/img][/center]","torrent":{"xt":"urn:btih:9adf8ee5827dcdfc4ab4ac2b22bd194ff7012ffe","amp;dn":"DHOOM+3+1cd+HDCAM","amp;tr":["udp%3A%2F%2Ftracker.openbittorrent.com%3A80","udp%3A%2F%2Fopen.demonii.com%3A1337","udp%3A%2F%2Ftracker.coppersurfer.tk%3A6969","udp%3A%2F%2Fexodus.desync.com%3A6969"],"infoHash":"9adf8ee5827dcdfc4ab4ac2b22bd194ff7012ffe","infoHashBuffer":{"type":"Buffer","data":[154,223,142,229,130,125,205,252,74,180,172,43,34,189,25,79,247,1,47,254]},"announce":[],"urlList":[]}}